<?xml version="1.0" encoding="UTF-8"?>
<svg version="1.1" viewBox="0 0 950 820" width="950" height="820" xmlns="http://www.w3.org/2000/svg">
<path transform="translate(0)" d="m0 0h950v820h-950z"/>
<path transform="translate(251,14)" d="m0 0v3l-3 8-1 6v13l4 14 6 12 10 14 10 13 5 10 2 8v14l-4 15-7 14-12 18-3 7-1 9 2 10 2 2h5l3-3 1-4 1-25 3-10 4-6 8-7 2 2-2 5v15l8 16 11 14 5 10 2 8v23l-4 13-6 11-9 11-6 9-1 7 7-1 6-5 7-12 4-11 3-15 7-13 7-7 8-4 3 1-7 6-3 9-1 12 2 15 3 12 2 22 3 5h5l1-1v-12l-4-9-4-6-2-8 3-8 6-1 7 3 4-1v-6l-8-14-1-6 4-9 4-7-1-7-1-2-1-11 2-12 2-4 1 14 3 9 6 9 1 6-4 10 1 6 6 8 10 11 2 4v10l-6 9-8 10-4 10-1 5v11l2 9 4 2h6l2-1v-6l-4-7v-10l5-4 7-4h2l-1-17h2l3 9 4 7 1 6-2 9-2 5v8l2 3 5-1 4-6v-15l-4-12-10-18-6-17-1-5v-13l4-13 7-10 11-11 8-7 8-8 8-16 1-3v-16l-4-11-1-4 4 4 4 8 3 11v16l-4 13-19 37-3 11v8l3 10 4 7 7 1-1-6-5-7-2-6v-14l4-12 8-13 1 2-2 7v12l4 11 7 9 10 13 5 10 1 4v11l-4 13-7 11-5 6-14 11-8 11-5 12v19l3 10 9 1 3-9-1-11-1-5v-9l2-9 7-11 8-8 10-8 8-10 6-14 1-5v-13l-2-10 3 4 6 14 3 12 1 7v18l-2 10-4 9-7 11-8 11-7 14-2 6v14l4 10 6 12 3 14-2 11-4 8-9 10-5 6-3 8v8l3 8 2 2h6l3-4-1-9-4-8-1-7 3-3 11-4 8-6 5-6 1-2v-10l-3-10v-9l5-14 1-5v-11l-1-5h2l4 10 1 4v9l-3 9v9l5 13 4 10v12l-5 12-7 8-8 6h-2l-2 4-3 7v9l1 4h9l3-3 2-5 3-14 3-6 4-5 5-3-2 9v37l-4 13-7 11-7 8-10 7-13 6-16 4-16 8-6 7-1 9v2l4 1 4-2 5-11 4-5 6-3 24-3 8-4 5-5 2-5h1v9l-5 10-10 9-17 8-6 7-1 3v9l2 3 5-1 4-5 5-9 5-5h2l-3 11v12l1 11-2 9-6 8-9 6-3 1h-12l-10-1-3 2v7l5 5 10 3-5 4-9 1-7-3-7-6-2-5-3-18-3-6-5-1-1 1v8l4 10v16l-5 12-5 7-8 7-5 7-2 5v9l1 4-4-2-5-8-1-3v-12l3-11 6-11 9-11 2-4v-7h-4l-6 18-5 7h-2l1-5v-10l-1-7 2-9 5-9 4-8v-6l-5-1-5 3-1 2-1 30-6 9-8 7-4-1v-10l-4 3-7 1-2-6-1 4 9 17 5 17v15l-5 14-8 10-7 7-11 9-9 11-6 13-1 5v12l2 9 3 6-1 2-6-10-4-14v-14l4-14 7-14 9-16 5-12 1-4v-12l-4-11-4-5-5-1-1 5 7 11 1 2v16l-3 9-8 15-2-1 2-6v-15l-4-10-9-11-8-11-4-7-1-4-4 2-6 4-4 5-2 6 1 12-5-3-6-9-1-3v-11l3-5 7-6 1-6-8 1-5 5-3 5-1 7 5 14 10 16 6 10 3 8v10l-4 10-4 6-8 5h-2l2-4 4-5 2-6v-8l-4-10-4-6-7-8-16-12-8-8-5-10-1-10 4-11 7-8 8-7 6-10 1-3v-8l-5-5-6-1-5 3h-2l-7 14-2 14v8l-5-5-3-6-1-4v-11l3-16-3-8-4-3h-7l-2 2-1 7 4 10v9l-2 8v8l-4-4-3-8-2-12-5-1-1 1 1 9 4 6 6 8 4 10 1 4v17l-3 8-7 8-3-1 3-5v-11l-3-6-9-10-7-8-4-9-1-9 3-11 4-8 2-3v-10l-6 1-4 5-4 17-4 8-7 6-6 2-9-1-7-4v-1l11-2 4-3-1-7-7-3-14-1-7-3-7-6-2-6v-20l1-8-2-10-3-5v-3l4 1 6 4 7 10 1 1h5l1-6-4-7-10-7-12-8-9-9-4-10-1-7 9 9 8 5 12 4 18 3 7 4 8 10 4 1-2-8-3-5-9-6-22-9-15-5-9-6-7-7-6-12-3-14v-18l2-21-2-13 6 4 6 9 2 6 2 15 2 4 3 2 7-1 2-6-1-9-4-6-13-13-4-8-1-3v-14l4-13 5-10 1-5v-25l4-11h3v12l5 19v8l-3 11v10l9 10 8 9 3 7v10l-2 6v8l1 2 6-1 5-8 1-8-3-9-8-10-7-11-2-7v-14l4-10 8-11 4-8 1-4v-9l-4-15-10-21-6-12-3-10-1-8v-15l3-15 5-13 7-9 1 3-2 12v12l3 14 7 12 9 9 6 5 6 9 3 7 1 13-4 16v8l3 7 5 1 5-3 3-5 2-9v-14l-4-13-6-11-11-12-7-7-7-11-3-9v-14l4-10 6-9 11-11 6-10 2-6 1-11-2-13-2-9 4 4 8 16 4 17-1 15-4 10-2 6v2l7-1 2-5 3-7 1-6v-12l-4-16-8-20-4-16v-22l4-11 6-9 1 2-1 4v22l4 13 8 16 10 16 7 11 4 11v18l-5 15-9 17-8 13-5 11v8l2 5 7 1 3-3 2-5 2-21 3-10 6-8 8-5 4 1-7 14-1 4v11l3 5 3 2h7l5-3 3-5 1-5v-11l-3-14-8-20-11-23-3-10-1-7v-10l3-13 7-13 9-9 5-2-2 4-3 7-1 5v8l3 12 7 13 17 16 6 10 2 7v13l-3 15v9l3 5h7l4-5 3-9v-17l-4-9-7-11-11-12-8-9-7-12-3-11v-7l3-12 6-11 9-11 7-9 4-9 1-4v-13l-1-10 3 3 9 17 3 10v14l-5 10-5 5v6h6l6-7 3-8v-15l-4-13-11-24-3-14-1-14 2-15 4-9 4-6z" fill="#FBFBFC"/>
<path transform="translate(239,294)" d="m0 0h5l-3 2h-3v2l9-2h19l9 2 13 4 20 4 9 5 5 5v2l-15-5 9 6 10 11 11 8 10 9 7 8 4 9 1 5v12l-5-5-9-7-8-5-4-5-6-4 3 9 9 3 3 3 2 8 6 8 15 15 5 8 3 9v12l-8-12-8-6-27-10-10-9-4-8v-2h-2l1 11 8 18 10 14 12 13 6 7 1 2v7l-3 2-3-4 1 7 3 6v2l6 1 4-6 15-6 4-2 2 6v7l-2 6 9-6 10-14 13-7 2-5h1l-1 8-6 16-14 11-1 5 7-3h7l3 4 3 9-6 10-5-2 1-4 1-2-10 4-19 2-4-4-2-5 1-7v-3l-4 7-2 4 5 9 1 9-1 9 5 15 2 11v8l-1 2h2l2-20 4 2v2h5l2-3 1-1 1-5 8-16 5-5h2v14l-3 14v6l4 12-1 3-17 6-4 2-2 11-9-3-8-2-2-10-2 12-10 22-4 21-6 12-3 1-3-8-3 6-6 4h-4l-1-4h-5l-3-1-6 2-5-5-2-7v-2l-9 7-7-6-5-1-4 1v-4l-5-1v-2h-9l1-4 3-6-8 7-4 1-1-4-4 1-2-4-1-6v-9-1h-2l1-6 6-12 8-6 5-2 4 1-2 6-5 12v10l4-12 5-7 10-7 3-5 6-4 5-10-16 8-22 5h-12l-10-3-9-5-10-9-8-10-7-10-6-14-4-5-8 1-8 4-3 1h-9l-8-4-5-5-6-15-4-1-4 5-3 1-3-8-6-31-5-13-2-5v-7l5-14 6-14 8-23 7-13 9-12 9-10 12-10 18-11 25-13 20-7z"/>
<path transform="translate(794,137)" d="m0 0 4 5 5 10 2 9v17l-5 15-14 26-5 11-2 8v8l4 12 3 5 8 2-2-7-6-10-1-4v-12l3-11 8-14 1 4-1 6v8l2 9 7 11 10 12 7 13 1 4v13l-4 11-7 11-4 5-11 9-8 8-6 10-3 10v16l3 9 4 4 5-1 3-9v-7l-2-11 1-11 4-10 7-9 16-14 7-9 5-11 2-7v-15l-1-7 3 3 7 19 2 11v23l-4 13-7 11-10 15-8 16-1 5v11l4 11 6 12 2 6v16l-4 10-9 10-6 7-3 8v9l3 7 2 2h6l3-5-2-10-4-9 1-5 9-4 12-7 6-9 1-7-4-14 1-11 4-10 1-5v-17l3 4 3 10v10l-3 10 1 10 5 12 3 8v11l-3 10-6 8-7 6-8 7-3 9 1 9 3 3 6-1 4-4 2-10 3-10 6-9 3-2 3 1-3 9v36l-5 14-7 11-7 7-12 8-24 8-11 4-9 6-4 5-1 9 3 3 4-1 3-5 5-10 6-4 4-1 18-2 11-4 5-4 3-6 2 2-2 10-4 6-8 8-12 6-9 5-4 6-1 3v8l1 3h5l5-6 6-10 5-4 1 3-2 4-1 7v8l1 7v8l-3 8-8 9-9 4h-13l-8-1-4 3v6l4 5 5 2 6 1-3 3-7 2-7-1-7-4-4-4-3-9-2-14-3-6-5-1-1 1v8l4 11v15l-4 11-6 8-7 6-6 9-2 6v7l2 5-4-2-4-5-2-5-1-11 3-14 8-13 7-9 2-4v-7h-5l-4 16-5 8-3 2 1-6v-24l6-11 4-7 1-8h-6l-4 2-2 4-1 30-8 10-5 4-4 1-1-9h-2l-5 2-4-1-2-5-8 6-4-2-1-4h-3l-2 4-6 5-4-1-1-9-3 1-5 5-6 1-2-14-4 4-5 7h-2l-5-10-1-6-6 1-4-5v-2l-4 2h-4l-3-7v-7h-5l-1-2v-9l1-2-3-1 2-12 8-8 1-2h-8l-1-2 3-5v-4l-5-3 1-2 10-5 1-3-4-4-18-10-11-7-2-3-2-9v-6l3 3 7 11 8 8 9 6 10 4 6 1h8l21-4 12-5 8-6 2 1-4 7-3 5-8 7-4 5-8 6-4 5-5 14h-1v-11l5-13 3-6-8 2-6 4-6 9-4 9 4-1-1 4 1 13 1 4h4l1 4 5-3 7-6 1 2-4 9 6-1 3 3 4 1 1 3 7-1 5 4 3 3 8-6 2 1 1 7 3 3v2l10-2 7 3v3l4-1 6-4 2-7 2 1 2 9 4-4 4-9 3-13 1-9 11-23 1-12h2l1 13h7l9 3 2-10 8-4 13-4 1-4-4-11 1-10 2-9 1-15-3 1-11 20-2 4 5-3-2 4-6 5-5-1-1-2-3-1v13l-2 6h-2l-1-17-4-13-2-4v-9l1-1-1-9-5-10v-2h2l2-5 3-8 1-5h1v8l-2 6 1 7 4 6 15-1 12-4h2l-2 6 5 1 4-7-1-8-3-6h-8l-5 3h-2l1-6 10-8 5-5 6-16v-3l-4 5-10 5-6 7-6 8-6 4-3-1 2-5v-7l-1-5-5 3-10 3-6 5-2 4-6-3-5-10v-6l5 4 1-1-1-9-7-8-7-7-8-10-7-11-7-16v-8l2-3 6 11 7 6 14 6 12 4 9 6 6 7 2 5v-10l-4-11-7-9-16-16-3-9-3-5-9-4-2-5 1-4 6 5 5 5 11 7 7 7v-11l-4-11-6-8-7-7-12-9-8-7-7-8-8-5v-1l7 1 9 5-4-5-7-5-6-2-18-3-12-4-6-1h-30l3-3 10-4 4-1h25l10 3 9 4 7 3-1-3v-9l12-17 3-7-1-7-5-9-1-9 2-4 1 9 6 10 7 8 2 5v7l-4 16 2 10 2 1h6l3-2 1-7-8-16v-9l2-4 2-1h6l5 3h4l1-8-5-10-8-10-2-6 6-5 9-4-1-7-1-1v-6l4-8-1-8-2-5 1-3 6 12v12l6 11-1 8-3 6 1 8 6 9 10 12 1 8-3 7-11 14-4 8-2 9v10l3 8 4 3 7-1v-6l-4-7v-8l5-6 9-5-1-17 2 1 3 9 4 6 1 4v7l-4 11v7l2 3 5-1 4-5v-17l-5-13-9-16-6-18-1-6v-11l3-10 6-11 12-12 11-9 8-10 5-10 2-6v-17l-5-12z" fill="#FCFCFD"/>
<path transform="translate(942)" d="m0 0h8v820h-8z" fill="#FCFCFD"/>
<path transform="translate(629,436)" d="m0 0 15 1 11 4 6 7 9 17 10 14 7 8v-4h12l8-3 7-5v-21h2l3 17-1 5-5 4-3 6-10 4-7 2-5 4-6 2h11l7-1-4 3-10 5-11 2-12 6-12 1-11-4 4-1 9 1 4-1v-2l-10-4-20-3-5-3-7-11-3-5h2l5 5h2l-6-8-3-6v-2l-10 1-8 6h-2l2-4 12-12 17-9 5-5 5-4h7l7 2-3-3-7-3-7-1z" fill="#FCFCFD"/>
<path transform="translate(265,439)" d="m0 0 11 2 8 5 6 9 7 13 10 14 7 8 2 1-2-6 4 1h8l14-7 1-1v-21l2 1 2 14 1 6-6 5-4 6-6 3-9 2-7 5h-7v2l9 1 10-2-5 4-10 4-9 2-14 6-9 1-9-3v-1l14-1v-2l-9-4-17-2-9-4-7-11-2-4 8 5-7-11-2-6-10 1-10 6 2-4 7-8 10-7 14-7 6-7 8-1 7 2-5-5-5-2z" fill="#FCFCFD"/>
<path transform="translate(722,512)" d="m0 0h2l-2 12-2 11 3-6 3-12 3-3 2 9v33l-5 10 4-2-2 12-2 3-5 1h-10l-4 1 2-9 2-13-5 8-6 7-10 3-6-10-10-9 5-5 6-4 11-17 8-8 11-6 6-4z" fill="#FBFBFC"/>
<path transform="translate(349,515)" d="m0 0h1v8l-4 16 1-1 3-7 4-13h2l2 9v32l-5 10 3-1 1-2-2 12-3 4-13 1-6 1 4-13 2-10-1 1-6 9-5 6-8 2h-3l-4-8-7-7-4-3 1-3 9-5 9-14 7-8 7-6 13-7z" fill="#FBFBFC"/>
<path transform="translate(270,615)" d="m0 0h3l4 10-2 6-10 15h-2l-2-7v-9l3-9z"/>
<path transform="translate(644,612)" d="m0 0 4 4 2 5-1 6-6 8-5 8h-2l-2-14 2-9 5-6z"/>
<path transform="translate(298,627)" d="m0 0 4 1 2 6v9l-4 8-6 5-1-3-1-5v-10l3-8z"/>
<path transform="translate(672,623)" d="m0 0 4 4 1 4v8l-4 10-3 3h-3l-2-8v-7l3-10z"/>
<path transform="translate(344,632)" d="m0 0 3 1 1 3v7l-6 12-5 5h-2l1-19 3-5z"/>
<path transform="translate(287,627)" d="m0 0h3l1 5-2 9-7 11-4 1-1-11 2-3 2-9z"/>
<path transform="translate(660,624)" d="m0 0 4 1v7l-5 12-5 6h-2l-1-2v-10l2-7 3-5z"/>
<path transform="translate(717,629)" d="m0 0 3 1 1 11-6 11-6 5 1-21 5-5z"/>
<path transform="translate(726,480)" d="m0 0h2l2 7-1 5-4 7-3 5-11 4-8 9v-3l7-9 9-8 5-15z" fill="#FCFCFD"/>
<path transform="translate(353,483)" d="m0 0h2l2 11-4 5-3 6-5 3-7 3-7 9-1-3 7-9 9-8 2-5 2-8z" fill="#FCFCFD"/>
<path transform="translate(701,632)" d="m0 0h5l2 3-1 7-7 8-4-1-1-11 2-4z"/>
<path transform="translate(328,635)" d="m0 0h5l2 5-2 7-7 6h-2l-2-7v-6l4-4z"/>
<path transform="translate(246,610)" d="m0 0h2l1 3v9l-3 6-3 3h-3l-2-6v-6l4-6z"/>
<path transform="translate(619,607)" d="m0 0h2l1 2v11l-3 5-3 3-3-1-2-5 1-7 3-5z"/>
<path transform="translate(258,616)" d="m0 0h3l-1 12-6 7h-3l-1-2v-10l6-4z"/>
<path transform="translate(632,613)" d="m0 0h2l-1 11-3 6-3 2h-3l-1-3v-8z"/>
<path transform="translate(315,631)" d="m0 0 3 1 1 9-3 6-4 4h-2l-1-10-1-4 6-2z"/>
<path transform="translate(688,629)" d="m0 0h3l1 3v7l-6 9-3 1v-9l-2-5 5-3z"/>
<path transform="translate(240,605)" d="m0 0h2v6l-6 7h-3v-10z"/>
<path transform="translate(614,602)" d="m0 0h2l-1 6-6 8-3-2v-8l5-3z"/>
<path transform="translate(238,592)" d="m0 0h1v6l-6 7-1-3 5-9z"/>
<path transform="translate(610,590)" d="m0 0h2l-1 7-6 5 3-9z"/>
</svg>
